<?xml version="1.0" encoding="utf-8"?>
<!-- Generator: Adobe Illustrator 24.2.0, SVG Export Plug-In . SVG Version: 6.00 Build 0)  -->
<svg version="1.1" id="Capa_1" xmlns="http://www.w3.org/2000/svg" xmlns:xlink="http://www.w3.org/1999/xlink" x="0px" y="0px"
	 viewBox="0 0 198.6 261.7" style="enable-background:new 0 0 198.6 261.7;" xml:space="preserve">
<style type="text/css">
	.st0{fill:#FFFFFF;}
</style>
<path class="st0" d="M170,216H28c-6.6,0-12-5.4-12-12V62c0-6.6,5.4-12,12-12h142c6.6,0,12,5.4,12,12v142
	C182,210.6,176.6,216,170,216z"/>
<g>
	<path d="M154.2,79.2v75.3c0,13.1-7.9,24.9-20,29.9c-12.1,5-26,2.1-35.2-7.2c-9.2,9.4-23.1,12.2-35.2,7.2c-12.1-5-20.1-16.8-20-29.9
		V79.2h18.6v75.3c0,7.6,6.1,13.7,13.7,13.7s13.7-6.1,13.7-13.7V79.2h18.5v75.3c0,7.6,6.1,13.7,13.7,13.7s13.7-6.1,13.7-13.7V79.2
		H154.2z"/>
</g>
</svg>
