<?xml version="1.0" encoding="utf-8"?>
<!-- Generator: Adobe Illustrator 24.0.1, SVG Export Plug-In . SVG Version: 6.00 Build 0)  -->
<svg version="1.1" id="Capa_1" xmlns="http://www.w3.org/2000/svg" xmlns:xlink="http://www.w3.org/1999/xlink" x="0px" y="0px"
	 viewBox="0 0 579.6 261.7" style="enable-background:new 0 0 579.6 261.7;" xml:space="preserve">
<style type="text/css">
	.st0{fill:#FFFFFF;}
</style>
<g>
	<path class="st0" d="M210.9,62.7v96.5c0,16.8-10.1,31.9-25.6,38.3c-15.5,6.4-33.3,2.7-45.1-9.2c-11.8,12-29.6,15.6-45.1,9.2
		c-15.5-6.4-25.7-21.5-25.6-38.3V62.7h23.8v96.5c0,9.7,7.8,17.5,17.5,17.5c9.7,0,17.5-7.8,17.5-17.5V62.7H152v96.5
		c0,9.7,7.8,17.5,17.5,17.5c9.7,0,17.5-7.8,17.5-17.5V62.7H210.9z"/>
	<path class="st0" d="M311.3,157.2c0,17.5-10.6,33.3-26.8,40.1c-16.2,6.7-34.8,3-47.2-9.4c-12.4-12.4-16.1-31-9.4-47.2
		c6.7-16.2,22.5-26.8,40.1-26.8C291.8,113.9,311.2,133.3,311.3,157.2z M267.9,176.7c10.8,0,19.5-8.7,19.5-19.5c0-7.9-4.8-15-12.1-18
		c-7.3-3-15.7-1.4-21.3,4.2c-5.6,5.6-7.3,14-4.2,21.3C252.9,172,260,176.7,267.9,176.7L267.9,176.7z"/>
	<path class="st0" d="M409.8,157.2c0,17.5-10.6,33.3-26.8,40.1c-16.2,6.7-34.8,3-47.2-9.4c-12.4-12.4-16.1-31-9.4-47.2
		c6.7-16.2,22.5-26.8,40.1-26.8C390.3,113.9,409.7,133.3,409.8,157.2z M366.4,176.7c10.8,0,19.5-8.7,19.5-19.5c0-7.9-4.8-15-12.1-18
		c-7.3-3-15.7-1.4-21.3,4.2c-5.6,5.6-7.3,14-4.2,21.3C351.4,172,358.5,176.7,366.4,176.7L366.4,176.7z"/>
	<path class="st0" d="M423.5,200.7V62.9h23.8v137.8H423.5z"/>
	<path class="st0" d="M489.9,86.7v27.2h11.4v23.8h-11.4v62.9h-23.8v-62.9h-6.9v-23.8h6.9V86.2c0-12.9,10.4-23.3,23.3-23.3h11.9v23.8
		H489.9z"/>
</g>
</svg>
